 <svg xmlns="http://www.w3.org/2000/svg" viewBox="0 -0.5 1024 1024" shape-rendering="crispEdges">
<metadata>Made with Pixels to Svg https://codepen.io/shshaw/pen/XbxvNj</metadata>
<path stroke="#ffffff" d="M512 608h64M512 609h64M512 610h64M512 611h64M512 612h64M512 613h64M512 614h64M512 615h64M512 616h64M512 617h64M512 618h64M512 619h64M512 620h64M512 621h64M512 622h64M512 623h64M400 624h48M496 624h80M400 625h48M496 625h80M400 626h48M496 626h80M400 627h48M496 627h80M400 628h48M496 628h80M400 629h48M496 629h80M400 630h48M496 630h80M400 631h48M496 631h80M400 632h48M496 632h80M400 633h48M496 633h80M400 634h48M496 634h80M400 635h48M496 635h80M400 636h48M496 636h80M400 637h48M496 637h80M400 638h48M496 638h80M400 639h48M496 639h80M400 640h80M496 640h48M400 641h80M496 641h48M400 642h80M496 642h48M400 643h80M496 643h48M400 644h80M496 644h48M400 645h80M496 645h48M400 646h80M496 646h48M400 647h80M496 647h48M400 648h80M496 648h48M400 649h80M496 649h48M400 650h80M496 650h48M400 651h80M496 651h48M400 652h80M496 652h48M400 653h80M496 653h48M400 654h80M496 654h48M400 655h80M496 655h48M432 656h48M432 657h48M432 658h48M432 659h48M432 660h48M432 661h48M432 662h48M432 663h48M432 664h48M432 665h48M432 666h48M432 667h48M432 668h48M432 669h48M432 670h48M432 671h48M480 672h16M480 673h16M480 674h16M480 675h16M480 676h16M480 677h16M480 678h16M480 679h16M480 680h16M480 681h16M480 682h16M480 683h16M480 684h16M480 685h16M480 686h16M480 687h16M480 688h16M480 689h16M480 690h16M480 691h16M480 692h16M480 693h16M480 694h16M480 695h16M480 696h16M480 697h16M480 698h16M480 699h16M480 700h16M480 701h16M480 702h16M480 703h16M480 704h16M480 705h16M480 706h16M480 707h16M480 708h16M480 709h16M480 710h16M480 711h16M480 712h16M480 713h16M480 714h16M480 715h16M480 716h16M480 717h16M480 718h16M480 719h16M576 736h32M576 737h32M576 738h32M576 739h32M576 740h32M576 741h32M576 742h32M576 743h32M576 744h32M576 745h32M576 746h32M576 747h32M576 748h32M576 749h32M576 750h32M576 751h32M624 832h16M624 833h16M624 834h16M624 835h16M624 836h16M624 837h16M624 838h16M624 839h16M624 840h16M624 841h16M624 842h16M624 843h16M624 844h16M624 845h16M624 846h16M624 847h16M624 848h16M624 849h16M624 850h16M624 851h16M624 852h16M624 853h16M624 854h16M624 855h16M624 856h16M624 857h16M624 858h16M624 859h16M624 860h16M624 861h16M624 862h16M624 863h16" />
<path stroke="#fefcff" d="M288 688h16M320 688h16M640 688h16M672 688h16M288 689h16M320 689h16M640 689h16M672 689h16M288 690h16M320 690h16M640 690h16M672 690h16M288 691h16M320 691h16M640 691h16M672 691h16M288 692h16M320 692h16M640 692h16M672 692h16M288 693h16M320 693h16M640 693h16M672 693h16M288 694h16M320 694h16M640 694h16M672 694h16M288 695h16M320 695h16M640 695h16M672 695h16M288 696h16M320 696h16M640 696h16M672 696h16M288 697h16M320 697h16M640 697h16M672 697h16M288 698h16M320 698h16M640 698h16M672 698h16M288 699h16M320 699h16M640 699h16M672 699h16M288 700h16M320 700h16M640 700h16M672 700h16M288 701h16M320 701h16M640 701h16M672 701h16M288 702h16M320 702h16M640 702h16M672 702h16M288 703h16M320 703h16M640 703h16M672 703h16M288 704h16M320 704h16M640 704h16M672 704h16M288 705h16M320 705h16M640 705h16M672 705h16M288 706h16M320 706h16M640 706h16M672 706h16M288 707h16M320 707h16M640 707h16M672 707h16M288 708h16M320 708h16M640 708h16M672 708h16M288 709h16M320 709h16M640 709h16M672 709h16M288 710h16M320 710h16M640 710h16M672 710h16M288 711h16M320 711h16M640 711h16M672 711h16M288 712h16M320 712h16M640 712h16M672 712h16M288 713h16M320 713h16M640 713h16M672 713h16M288 714h16M320 714h16M640 714h16M672 714h16M288 715h16M320 715h16M640 715h16M672 715h16M288 716h16M320 716h16M640 716h16M672 716h16M288 717h16M320 717h16M640 717h16M672 717h16M288 718h16M320 718h16M640 718h16M672 718h16M288 719h16M320 719h16M640 719h16M672 719h16M288 720h16M336 720h32M608 720h32M672 720h16M288 721h16M336 721h32M608 721h32M672 721h16M288 722h16M336 722h32M608 722h32M672 722h16M288 723h16M336 723h32M608 723h32M672 723h16M288 724h16M336 724h32M608 724h32M672 724h16M288 725h16M336 725h32M608 725h32M672 725h16M288 726h16M336 726h32M608 726h32M672 726h16M288 727h16M336 727h32M608 727h32M672 727h16M288 728h16M336 728h32M608 728h32M672 728h16M288 729h16M336 729h32M608 729h32M672 729h16M288 730h16M336 730h32M608 730h32M672 730h16M288 731h16M336 731h32M608 731h32M672 731h16M288 732h16M336 732h32M608 732h32M672 732h16M288 733h16M336 733h32M608 733h32M672 733h16M288 734h16M336 734h32M608 734h32M672 734h16M288 735h16M336 735h32M608 735h32M672 735h16M288 736h16M368 736h32M672 736h16M288 737h16M368 737h32M672 737h16M288 738h16M368 738h32M672 738h16M288 739h16M368 739h32M672 739h16M288 740h16M368 740h32M672 740h16M288 741h16M368 741h32M672 741h16M288 742h16M368 742h32M672 742h16M288 743h16M368 743h32M672 743h16M288 744h16M368 744h32M672 744h16M288 745h16M368 745h32M672 745h16M288 746h16M368 746h32M672 746h16M288 747h16M368 747h32M672 747h16M288 748h16M368 748h32M672 748h16M288 749h16M368 749h32M672 749h16M288 750h16M368 750h32M672 750h16M288 751h16M368 751h32M672 751h16M288 752h16M400 752h176M672 752h16M288 753h16M400 753h176M672 753h16M288 754h16M400 754h176M672 754h16M288 755h16M400 755h176M672 755h16M288 756h16M400 756h176M672 756h16M288 757h16M400 757h176M672 757h16M288 758h16M400 758h176M672 758h16M288 759h16M400 759h176M672 759h16M288 760h16M400 760h176M672 760h16M288 761h16M400 761h176M672 761h16M288 762h16M400 762h176M672 762h16M288 763h16M400 763h176M672 763h16M288 764h16M400 764h176M672 764h16M288 765h16M400 765h176M672 765h16M288 766h16M400 766h176M672 766h16M288 767h16M400 767h176M672 767h16M304 768h16M656 768h16M304 769h16M656 769h16M304 770h16M656 770h16M304 771h16M656 771h16M304 772h16M656 772h16M304 773h16M656 773h16M304 774h16M656 774h16M304 775h16M656 775h16M304 776h16M656 776h16M304 777h16M656 777h16M304 778h16M656 778h16M304 779h16M656 779h16M304 780h16M656 780h16M304 781h16M656 781h16M304 782h16M656 782h16M304 783h16M656 783h16M304 784h16M656 784h16M304 785h16M656 785h16M304 786h16M656 786h16M304 787h16M656 787h16M304 788h16M656 788h16M304 789h16M656 789h16M304 790h16M656 790h16M304 791h16M656 791h16M304 792h16M656 792h16M304 793h16M656 793h16M304 794h16M656 794h16M304 795h16M656 795h16M304 796h16M656 796h16M304 797h16M656 797h16M304 798h16M656 798h16M304 799h16M656 799h16M320 800h16M640 800h16M320 801h16M640 801h16M320 802h16M640 802h16M320 803h16M640 803h16M320 804h16M640 804h16M320 805h16M640 805h16M320 806h16M640 806h16M320 807h16M640 807h16M320 808h16M640 808h16M320 809h16M640 809h16M320 810h16M640 810h16M320 811h16M640 811h16M320 812h16M640 812h16M320 813h16M640 813h16M320 814h16M640 814h16M320 815h16M640 815h16M320 816h16M640 816h16M320 817h16M640 817h16M320 818h16M640 818h16M320 819h16M640 819h16M320 820h16M640 820h16M320 821h16M640 821h16M320 822h16M640 822h16M320 823h16M640 823h16M320 824h16M640 824h16M320 825h16M640 825h16M320 826h16M640 826h16M320 827h16M640 827h16M320 828h16M640 828h16M320 829h16M640 829h16M320 830h16M640 830h16M320 831h16M640 831h16M336 832h16M336 833h16M336 834h16M336 835h16M336 836h16M336 837h16M336 838h16M336 839h16M336 840h16M336 841h16M336 842h16M336 843h16M336 844h16M336 845h16M336 846h16M336 847h16M336 848h16M336 849h16M336 850h16M336 851h16M336 852h16M336 853h16M336 854h16M336 855h16M336 856h16M336 857h16M336 858h16M336 859h16M336 860h16M336 861h16M336 862h16M336 863h16M352 864h16M608 864h16M352 865h16M608 865h16M352 866h16M608 866h16M352 867h16M608 867h16M352 868h16M608 868h16M352 869h16M608 869h16M352 870h16M608 870h16M352 871h16M608 871h16M352 872h16M608 872h16M352 873h16M608 873h16M352 874h16M608 874h16M352 875h16M608 875h16M352 876h16M608 876h16M352 877h16M608 877h16M352 878h16M608 878h16M352 879h16M608 879h16M368 880h16M592 880h16M368 881h16M592 881h16M368 882h16M592 882h16M368 883h16M592 883h16M368 884h16M592 884h16M368 885h16M592 885h16M368 886h16M592 886h16M368 887h16M592 887h16M368 888h16M592 888h16M368 889h16M592 889h16M368 890h16M592 890h16M368 891h16M592 891h16M368 892h16M592 892h16M368 893h16M592 893h16M368 894h16M592 894h16M368 895h16M592 895h16M384 896h32M560 896h32M384 897h32M560 897h32M384 898h32M560 898h32M384 899h32M560 899h32M384 900h32M560 900h32M384 901h32M560 901h32M384 902h32M560 902h32M384 903h32M560 903h32M384 904h32M560 904h32M384 905h32M560 905h32M384 906h32M560 906h32M384 907h32M560 907h32M384 908h32M560 908h32M384 909h32M560 909h32M384 910h32M560 910h32M384 911h32M560 911h32M416 912h144M416 913h144M416 914h144M416 915h144M416 916h144M416 917h144M416 918h144M416 919h144M416 920h144M416 921h144M416 922h144M416 923h144M416 924h144M416 925h144M416 926h144M416 927h144" />
    </svg>