<?xml version="1.0" encoding="iso-8859-1"?>
<!-- Uploaded to: SVG Repo, www.svgrepo.com, Generator: SVG Repo Mixer Tools -->
<!DOCTYPE svg PUBLIC "-//W3C//DTD SVG 1.1//EN" "http://www.w3.org/Graphics/SVG/1.1/DTD/svg11.dtd">
<svg fill="#ffffff" version="1.1" id="Capa_1" xmlns="http://www.w3.org/2000/svg" xmlns:xlink="http://www.w3.org/1999/xlink" 
	 width="800px" height="800px" viewBox="0 0 48 48" xml:space="preserve">
<g>
	<path d="M18.492,13.037C18.492,7.054,24.001,0,24.001,0s5.509,7.054,5.509,13.037s-5.509,8.63-5.509,8.63
		S18.492,19.021,18.492,13.037z M11.572,28.686c4.793,3.58,10.211,0.75,10.211,0.75s1.176-5.997-3.618-9.578
		c-4.793-3.581-13.741-3.389-13.741-3.389S6.779,25.104,11.572,28.686z M27.193,29.841c1.772,0.627,5.677,1.503,9.236-1.155
		c4.793-3.582,7.146-12.217,7.146-12.217s-8.947-0.191-13.74,3.389c-3.154,2.355-3.725,5.755-3.744,7.808h-0.001v8.236h-0.049H6.22
		C6.22,42.607,14.236,48,24.001,48c9.767,0,17.78-5.393,17.78-12.098H27.193V29.841z"/>
</g>
</svg>